<svg xmlns="http://www.w3.org/2000/svg" viewBox="0 0 721.5 444" enable-background="new 0 0 721.5 444"><path fill="#BC9D6D" d="M539.8 249.8c33.4-10 67.9-23.6 101.1-41.7 53.2-31 80.4 1.2 60.7 49.8-16.8 46-106.4 131.7-184.4 151.2-29.9-21.1-88.6-35.5-156.3-35.8-67.7.3-126.4 14.7-156.3 35.8-78.1-19.4-167.6-105.1-184.4-151.1-19.7-48.6 7.5-80.8 60.7-49.8 33.3 18.2 67.8 31.7 101 41.8 71.5 21.5 137 26.8 171.4 26.9h18.9c34.2-.5 98.1-6.2 167.6-27.1zm-96.4-216.4c27.8 13.9 73.1 144.8 90.7 198.5-67.2 19.5-128.6 24.8-161.9 25.2h-18.8c-33.4 0-96.3-5-165.6-25.2 17.6-53.6 62.9-184.7 90.7-198.6 31.9-16 59.3 10.4 81.4 13.1h-4.2c1.7.2 3.5.3 5.3.1 1.8.2 3.6.1 5.4-.1h-4.4c22.1-2.5 49.4-29 81.4-13zm-10.9 101.6c0-5.8-4.7-10.5-10.5-10.5-5.3 0-9.7 4-10.4 9.1l-32.4-4.7-14.3-28.9c3.8-1.6 6.5-5.3 6.5-9.7 0-5.8-4.7-10.5-10.5-10.5s-10.5 4.7-10.5 10.5c0 4.4 2.8 8.2 6.6 9.8l-14.3 28.9-32.5 4.7c-.7-5.1-5.1-9.1-10.4-9.1-5.8 0-10.5 4.7-10.5 10.5s4.7 10.5 10.5 10.5c3.6 0 6.7-1.8 8.6-4.5l23.1 22.5-5.8 33.8c-1.3-.6-2.7-.9-4.2-.9-5.8 0-10.5 4.7-10.5 10.5s4.7 10.5 10.5 10.5 10.5-4.7 10.5-10.5c0-2.2-.7-4.2-1.8-5.9l30.7-16.2 30.6 16.1c-1.2 1.7-1.8 3.7-1.8 5.9 0 5.8 4.7 10.5 10.5 10.5s10.5-4.7 10.5-10.5-4.7-10.5-10.5-10.5c-1.5 0-2.8.3-4.1.8l-5.8-33.7 23-22.4c1.9 2.7 5 4.5 8.6 4.5 5.9 0 10.6-4.7 10.6-10.6z"/></svg>