<svg xmlns="http://www.w3.org/2000/svg" viewBox="0 0 450 444" enable-background="new 0 0 450 444"><path fill="#BC9D6D" d="M81.1 426c5.1.5 9.6-3 10.5-7.9-.5 5.4 3.5 10.2 8.9 10.7s10.3-3.5 10.7-8.9c.5-5.8 1.9-20.6 2.5-25.9h.4c35.2 2.9 75-23.3 82.9-79.1 3.4-24.1-2.8-48.1-17.4-67.6-9.9-13.2-23-23.2-37.9-29.3 1.1-2.2 1.9-4.5 2.3-7 .9-6.4-.7-12.7-4.6-17.8-3.9-5.1-9.5-8.5-15.9-9.4-11.8-1.7-23.2 5.7-26.5 17.2-.3 1.1-.5 2.1-.7 3.2-.4 2.5-.2 5 .2 7.4-2.6.3-5.2.7-7.7 1.2l-6.3-17.1c6.3-4.5 11.2-10.9 13.4-18.7 1.1-3.8 1.5-7.7 1.2-11.7l-2.9-43.7c-.3-4.1-1.3-8-2.9-11.6l23.4-19.3 1.6.9c8.3 4.1 17.6 4.7 26.4 1.7l41.4-14.1c10.7-3.6 19-12.3 22.1-23.2v-.2l20.5-.4c3.4 8.4 10 15.4 18.9 19.1l40.5 16.7c8.4 3.5 17.6 3.5 26 .1l9.1 11.5c-1.9 2.9-3.4 6.1-4.4 9.5-1.3 4.6-1.6 9.4-1 14.2l5.9 43.4c1.8 13 10.6 23.3 22 27.6l-.5 14.4c-30.4 1-59.7 17-76 45.2-5.2 9-8.9 17.8-11.4 26.4-10.9 38.1 3.6 71.1 27.7 87l.3.3c-2.8 4.7-10.8 17.3-13.9 22.2-2.9 4.6-1.5 10.7 3.1 13.6 4.6 2.9 10.7 1.5 13.6-3.1-.3.6-.7 1.3-.9 1.9-1.2 4.1.4 8.7 4.2 11.1 4.6 2.9 10.7 1.5 13.6-3.1 1.2-1.9 10.9-17.3 14.3-22.9.1 0 .3.1.4.2 31.5 15.9 78.3 6.6 106.5-42.1 21.3-36.6 14-82.1-14.9-110.5 1.8-1.6 3.5-3.5 4.8-5.7 1-1.7 1.8-3.6 2.3-5.5 3-10.6-1.5-21.9-11.1-27.4-11.5-6.7-26.2-2.7-32.9 8.7-1 1.7-1.8 3.6-2.3 5.5-.1.5-.2 1-.3 1.4-2.5-.7-5-1.3-7.6-1.8l.5-14.6c12.3-2.7 22.2-11.9 25.7-24.2 1.3-4.6 1.7-9.4 1-14.2l-5.9-43.4c-2.6-18.9-20-32.1-38.9-29.5-3.2.4-6.2 1.3-9 2.6l-8.8-11.2c1.4-2 2.6-4.2 3.6-6.6 7.3-17.9-1.3-37.9-18.8-45.1l-40.5-16.7c-8.5-3.5-17.9-3.5-26.4.1s-15.1 10.2-18.7 18.7c-.5 1.2-.9 2.5-1.3 3.7l-.6 2.5-18.5.6-.2-.6c-3-8.7-9.2-15.8-17.4-19.9-8.3-4.1-17.6-4.7-26.4-1.7l-41.4 14.1c-10.7 3.6-19 12.3-22.1 23.3-1.9 6.8-1.7 13.9.5 20.6.6 1.6 1.3 3.2 2 4.7l-22.4 18.4c-6.2-4.1-13.5-6-21.1-5.5-14.5 1-27 11-31 25-1.1 3.8-1.5 7.7-1.2 11.7l2.9 43.7c1.2 18.6 17.1 32.8 35.6 32.2l6.2 16.8c-24.2 10.7-43.2 31.7-50.8 58.3-1.1 4-2 8.1-2.6 12.3-7.9 55.7 23.1 91.9 57.8 98.9.2 0 .3.1.4.1-.8 6.5-2.4 24.7-2.6 26.9-.7 5.4 3.3 10.2 8.8 10.7zm327.1-87.4c-16.7 28.8-49.8 49.9-80.5 34.4-9.4-4.8-20.5-2.1-25.5 6 4.6-8.3 1.4-19.3-7.4-25.1-28.7-19-26.8-58.1-10.1-86.9 19.8-34 63.5-45.7 97.6-25.9 34 19.7 45.7 63.5 25.9 97.5zm-17.6-120.5c1.2-2.1 3.8-2.8 5.9-1.6 1.7 1 2.5 3 2 4.9-.1.3-.2.7-.4 1-1.2 2-3.8 2.7-5.9 1.6-2-1.2-2.7-3.9-1.6-5.9zm-25.6-98.3l5.9 43.4c.3 2 .1 4.1-.4 6-1 3.4-3.1 6.3-5.9 8.2l.5-14c.2-5.5-4.1-10-9.5-10.2-4.6-.2-8.6 2.9-9.8 7.2-.2.8-.3 1.6-.4 2.4l-.4 11.8c-1.7-2-2.8-4.5-3.2-7.3l-5.9-43.4c-.1-1-.2-2.1-.1-3.1l6.8 8.6c3.4 4.3 9.6 5 13.9 1.6 4.3-3.4 5-9.6 1.6-13.9l-7.9-10c7.2-.2 13.8 5.2 14.8 12.7zm-111.6-90.9c3.6-1.5 7.7-1.5 11.3 0l40.5 16.7c6.4 2.6 10 9.2 8.9 15.9l-4.8-6c-3.4-4.3-9.6-5-13.9-1.6-1.7 1.3-2.8 3.1-3.4 5-.8 2.9-.3 6.2 1.7 8.8l5 6.3c-1.6-.1-3.3-.4-4.8-1l-40.5-16.7c-.9-.4-1.7-.8-2.5-1.3l7.4-.1c5.5-.1 9.8-4.6 9.7-10.1-.1-5.5-4.6-9.8-10.1-9.7l-11.7.2c1.7-2.9 4.1-5.1 7.2-6.4zm-126.4 17.7l41.4-14.1c3.7-1.3 7.7-1 11.3.7 1.6.8 3.1 1.9 4.3 3.2l-7.8.2c-4.4.1-8.2 3.1-9.3 7.2-.3.9-.4 1.9-.4 2.9.1 5.5 4.6 9.8 10.1 9.7l7.7-.2c-1.7 1.9-3.8 3.4-6.3 4.3l-41.4 14.1c-1 .3-1.9.5-2.9.7l7.2-5.9c4.2-3.5 4.8-9.7 1.3-13.9-3.5-4.2-9.7-4.8-13.9-1.3l-10.9 9c-1.2-7 2.9-14.3 9.6-16.6zm-79 121.9l-2.9-43.7c-.5-8 5.9-15.2 13.8-15.7.8-.1 1.6 0 2.5.1l-6.7 5.5c-1.6 1.3-2.7 3-3.2 4.9-.9 3-.3 6.4 1.9 9 3.5 4.2 9.7 4.8 13.9 1.3l7.4-6.1 2.8 42.7c.1 1.7-.1 3.4-.5 5-.4 1.4-1 2.7-1.8 3.9l-3.5-9.6c-1.9-5.1-7.6-7.8-12.7-5.9-3.1 1.1-5.3 3.6-6.1 6.6-.6 1.9-.5 4.1.2 6.1l2.9 7.9c-4.5-2.2-7.7-6.7-8-12zm68.7 41.7c-.4-.5-1-1.7-.8-3.2.3-2.4 2.5-4 4.9-3.7 1.5.2 2.4 1.1 2.8 1.7.4.5 1 1.7.8 3.2l-.1.6c-.6 2-2.6 3.3-4.7 3-1.6-.2-2.5-1.1-2.9-1.6zm-80.5 81.9c5.5-39 41.7-66.2 80.7-60.7 18.9 2.7 35.6 12.5 47.1 27.8 11.5 15.2 16.3 34 13.6 52.9-6.1 43.7-35.7 64.3-61.7 62.1-10.5-.8-19.7 5.7-21.3 15.1 1.1-9.4-6-18.3-16.3-20.4-33.9-6.8-46.8-43.8-42.1-76.8z"/></svg>