<svg xmlns="http://www.w3.org/2000/svg" viewBox="0 0 612 708" enable-background="new 0 0 612 708"><path fill="#87714F" d="M580.7 487c-4.8 0-9.1 1.7-12.9 4l-80.8-136.2 80.8-136.1c3.8 2.3 8.1 4 12.9 4 14.2 0 25.7-11.5 25.7-25.7s-11.5-25.7-25.7-25.7-25.7 11.5-25.7 25.7l.1.3-158 1.9-77.5-138c7.8-4.4 13.3-12.5 13.3-22.1 0-14.2-11.5-25.7-25.7-25.7s-25.7 11.5-25.7 25.7c0 9.6 5.5 17.7 13.3 22.1l-77.4 138.1-158-1.9.1-.3c0-14.2-11.5-25.7-25.7-25.7s-25.7 11.5-25.7 25.7 11.5 25.7 25.7 25.7c4.8 0 9-1.7 12.9-4l80.8 136.1-80.8 136.1c-3.9-2.3-8.1-4-12.9-4-14.2 0-25.7 11.5-25.7 25.7s11.5 25.7 25.7 25.7 25.7-11.5 25.7-25.7l-.1-.3 158-2 77.4 138.1c-7.8 4.4-13.3 12.5-13.3 22.1 0 14.2 11.5 25.7 25.7 25.7s25.7-11.5 25.7-25.7c0-9.6-5.5-17.7-13.3-22.1l77.4-138.1 158 2-.1.3c0 14.2 11.5 25.7 25.7 25.7s25.7-11.5 25.7-25.7c.1-14.2-11.5-25.7-25.6-25.7z"/></svg>