<?xml version="1.0" encoding="utf-8"?>
<!-- Generator: Adobe Illustrator 18.1.1, SVG Export Plug-In . SVG Version: 6.00 Build 0)  -->
<svg version="1.1" id="Layer_1" xmlns="http://www.w3.org/2000/svg" xmlns:xlink="http://www.w3.org/1999/xlink" x="0px" y="0px"
	 viewBox="832 412 256 256" enable-background="new 832 412 256 256" xml:space="preserve">
<path id="Your_Icon_17_" fill="#87714F" d="M1045.6,583.1c-1.6,0-3,0.6-4.2,1.3l-26.3-44.4l26.3-44.4c1.2,0.7,2.6,1.3,4.2,1.3
	c4.6,0,8.4-3.7,8.4-8.4c0-4.7-3.7-8.4-8.4-8.4c-4.7,0-8.4,3.7-8.4,8.4v0.1l-51.5,0.7l-25.2-45c2.5-1.4,4.3-4.1,4.3-7.2
	c0-4.7-3.7-8.4-8.4-8.4c-4.6,0-8.4,3.7-8.4,8.4c0,3.2,1.8,5.8,4.4,7.2l-25.2,45l-51.5-0.7v-0.1c0-4.7-3.7-8.4-8.4-8.4
	c-4.7,0-8.4,3.7-8.4,8.4c0,4.7,3.7,8.4,8.4,8.4c1.6,0,3-0.6,4.2-1.3l26.3,44.4l-26.3,44.4c-1.3-0.7-2.6-1.3-4.2-1.3
	c-4.7,0-8.4,3.7-8.4,8.4c0,4.7,3.7,8.4,8.4,8.4c4.6,0,8.4-3.7,8.4-8.4v-0.1l51.5-0.7l25.2,45c-2.5,1.4-4.4,4.1-4.4,7.2
	c0,4.7,3.7,8.4,8.4,8.4c4.7,0,8.4-3.7,8.4-8.4c0-3.2-1.8-5.8-4.3-7.2l25.2-45l51.5,0.7v0.1c0,4.7,3.7,8.4,8.4,8.4
	c4.6,0,8.4-3.7,8.4-8.4C1054,586.8,1050.3,583.1,1045.6,583.1L1045.6,583.1z"/>
</svg>
